<svg id="Layer_1" enable-background="new 0 0 512 512" height="512" viewBox="0 0 512 512" width="512" xmlns="http://www.w3.org/2000/svg"><g><path d="m226 316h60v70h-60z" fill="#d98868"/><g><path d="m163.253 188c0 21.539-13.207 39-29.498 39s-25.755-20.052-25.755-41.591 9.464-36.409 25.755-36.409 29.498 17.461 29.498 39z" fill="#e8916f"/><path d="m348.747 188c0 21.539 13.207 39 29.498 39s25.755-20.052 25.755-41.591-9.464-36.409-25.755-36.409-29.498 17.461-29.498 39z" fill="#d98868"/></g><path d="m148 233.071v-80.214c0-56.254 45.603-101.857 101.856-101.857h12.288c56.253 0 101.856 45.603 101.856 101.856v80.214c0 59.608-48.322 107.93-107.93 107.93h-.141c-59.607 0-107.929-48.322-107.929-107.929z" fill="#ebad88"/><path d="m262.144 51h-12.288c-2.985 0-5.937.136-8.856.387 52.106 4.489 93 48.199 93 101.469v80.214c0 54.541-40.459 99.625-93 106.897 4.881.676 9.863 1.033 14.929 1.033h.141c59.608 0 107.93-48.322 107.93-107.929v-80.214c0-56.254-45.603-101.857-101.856-101.857z" fill="#e8916f"/><path d="m131.905 98.624h248.19v39.876h-248.19z" fill="#546e7a"/><path d="m350.095 98.624h30v39.876h-30z" fill="#455a64"/><path d="m395.517 46.769-21.204 51.855h-236.626l-21.204-51.855c-3.19-7.802.65-16.706 8.523-19.716 20.022-7.655 62.206-19.553 130.994-19.553s110.972 11.898 130.994 19.553c7.873 3.01 11.713 11.914 8.523 19.716z" fill="#4362a0"/><path d="m256 7.5c-5.178 0-10.198.071-15.076.199 56.753 1.474 93.399 11.133 112.882 18.17 9.636 3.48 14.407 14.307 10.529 23.79l-20.022 48.965h30l21.204-51.855c3.19-7.802-.65-16.706-8.523-19.716-20.022-7.655-62.206-19.553-130.994-19.553z" fill="#3e5a94"/><path d="m400.134 164h-288.268c-6.001 0-10.866-5.699-10.866-12.729v-.015c0-6.475 4.15-11.919 9.643-12.648 0 0 75.772-19.019 145.669-19.019s145.032 19.032 145.032 19.032c5.499.722 9.657 6.168 9.657 12.65-.001 7.03-4.866 12.729-10.867 12.729z" fill="#4362a0"/><path d="m401.343 138.621s-75.134-19.032-145.032-19.032c-4.983 0-9.995.1-15.008.279 65.231 2.339 130.04 18.753 130.04 18.753 5.499.722 9.656 6.168 9.656 12.65 0 7.03-4.865 12.729-10.866 12.729h30c6.001 0 10.866-5.699 10.866-12.729.001-6.482-4.157-11.928-9.656-12.65z" fill="#3e5a94"/><path d="m255.116 140.141c-21.276-12.207-36.126-32.164-39.052-57.917-.388-3.417 31.503-14.955 39.936-14.955s40.324 11.539 39.935 14.956c-2.925 25.633-17.735 45.684-39.051 57.916-.545.313-1.222.313-1.768 0z" fill="#ffd740"/><path d="m256.001 67.269c-2.938 0-8.725 1.402-15 3.372 11.737 3.684 25.189 9.357 24.935 11.584-2.225 19.498-11.331 35.76-24.941 47.814 4.289 3.794 9.018 7.173 14.123 10.102.546.313 1.222.313 1.768 0 21.316-12.232 36.126-32.283 39.051-57.916.388-3.417-31.504-14.956-39.936-14.956z" fill="#ffc328"/><path d="m396 504.5h-280v-62.149c0-22.838 18.513-41.351 41.351-41.351h197.298c22.838 0 41.351 18.513 41.351 41.351z" fill="#4362a0"/><path d="m354.649 401h-30c22.837 0 41.351 18.513 41.351 41.351v62.149h30v-62.149c0-22.838-18.514-41.351-41.351-41.351z" fill="#3e5a94"/><path d="m298.255 401h-84.511c-4.277 0-7.745-3.467-7.745-7.745v-14.511c0-4.277 3.467-7.745 7.745-7.745h84.511c4.277 0 7.745 3.467 7.745 7.745v14.511c0 4.278-3.467 7.745-7.745 7.745z" fill="#3e5a94"/><path d="m298.255 371h-30c4.277 0 7.745 3.467 7.745 7.745v14.511c0 4.277-3.467 7.745-7.745 7.745h30c4.277 0 7.745-3.467 7.745-7.745v-14.511c0-4.278-3.467-7.745-7.745-7.745z" fill="#395287"/><circle cx="256" cy="455.693" fill="#ffd740" r="16"/><path d="m281.09 341h-50.18c-24.919 0-45.119-20.201-45.119-45.119v-48.069c0-4.93 3.997-8.927 8.927-8.927h122.564c4.93 0 8.927 3.997 8.927 8.927v48.069c0 24.918-20.201 45.119-45.119 45.119z" fill="#7be492"/><path d="m317.282 238.885h-30c4.93 0 8.927 3.997 8.927 8.927v48.069c0 24.919-20.201 45.119-45.12 45.119h30c24.919 0 45.12-20.201 45.12-45.119v-48.069c0-4.931-3.997-8.927-8.927-8.927z" fill="#45d987"/><g><path d="m402.804 131.255c-1.44-.358-6.824-1.677-15.204-3.479v-29.156c0-2.361-1.093-4.465-2.798-5.839l17.66-43.171c2.317-5.665 2.254-11.877-.179-17.491-2.43-5.607-6.909-9.896-12.615-12.074-19.593-7.487-63.011-20.045-133.668-20.045-22.967 0-44.88 1.324-65.13 3.937-4.107.53-7.009 4.29-6.479 8.398.53 4.109 4.29 7.007 8.398 6.479 19.616-2.531 40.883-3.814 63.211-3.814 68.249 0 109.687 11.939 128.314 19.056 1.901.727 3.394 2.156 4.204 4.025.813 1.877.834 3.954.06 5.849l-19.304 47.19h-67.198c.557-2.635 1-5.317 1.311-8.046.157-1.383.073-4.093-2.262-6.71-5.888-6.597-36.334-16.595-45.125-16.595-6.481 0-18.814 4.137-23.815 5.915-11.449 4.07-18.618 7.663-21.31 10.679-2.336 2.616-2.421 5.326-2.264 6.708.31 2.73.752 5.413 1.308 8.049h-67.195l-19.304-47.19c-.774-1.895-.754-3.972.06-5.849.811-1.869 2.303-3.299 4.205-4.025 9.836-3.759 21.194-7.069 33.759-9.84 4.045-.893 6.601-4.895 5.709-8.939s-4.889-6.603-8.939-5.709c-13.285 2.93-25.357 6.455-35.881 10.477-5.707 2.179-10.187 6.467-12.616 12.074-2.433 5.614-2.496 11.826-.179 17.491l17.66 43.171c-1.705 1.375-2.798 3.478-2.798 5.839v29.169c-8.41 1.798-13.803 3.106-15.221 3.456-8.973 1.451-15.68 9.964-15.68 20.024 0 7.387 3.625 13.843 9.008 17.374-1.327 5.071-2.008 10.674-2.008 16.766 0 28.444 13.987 49.09 33.26 49.09 2.277 0 4.534-.277 6.75-.785.206 36.678 17.962 71.23 47.652 92.792 7.236 10.071 17.931 17.49 30.338 20.502v16.492h-4.756c-8.405 0-15.244 6.839-15.244 15.244v14.511c0 .083.011.163.012.245h-41.162c-26.937 0-48.851 21.914-48.851 48.851v62.149c0 4.143 3.357 7.5 7.5 7.5h44.006c4.143 0 7.5-3.357 7.5-7.5s-3.357-7.5-7.5-7.5h-36.504v-54.649c0-18.665 15.186-33.851 33.851-33.851h197.299c18.665 0 33.851 15.186 33.851 33.851v54.649h-196.263c-4.143 0-7.5 3.357-7.5 7.5s3.357 7.5 7.5 7.5h203.762c4.143 0 7.5-3.357 7.5-7.5v-62.149c0-26.937-21.914-48.851-48.851-48.851h-41.162c.001-.083.012-.162.012-.245v-14.511c0-8.405-6.839-15.244-15.244-15.244h-4.755v-16.492c12.408-3.012 23.104-10.432 30.339-20.504 29.414-21.363 47.111-55.479 47.635-91.778.253-.274.478-.568.685-.873 2.001.412 4.032.646 6.08.646 19.272 0 33.26-20.646 33.26-49.09 0-6.086-.679-11.685-2.003-16.751 1.477-.959 2.844-2.132 4.032-3.525 3.206-3.762 4.972-8.686 4.972-13.864 0-10.06-6.713-18.57-15.696-20.014zm-30.204-25.135v18.584c-21.167-4.124-49.22-8.693-78.885-11.038 1.351-2.446 2.57-4.965 3.662-7.547h75.223zm-116.599-31.35c5.29 0 24.711 6.759 31.933 10.476-3.3 19.335-14.492 35.706-31.934 46.679-17.45-10.976-28.644-27.347-31.936-46.678 7.22-3.718 26.645-10.477 31.937-10.477zm-41.383 31.35c1.098 2.597 2.325 5.129 3.686 7.588-29.603 2.364-57.69 6.923-78.903 11.029v-18.617zm-102.99 39.925c.28-.037.56-.091.835-.159.079-.021 8.038-2.007 20.92-4.654.019-.004.039-.008.058-.012 23.362-4.797 58.47-10.895 94.951-13.198 6.33 7.206 14.034 13.484 22.99 18.623 1.425.818 3.021 1.228 4.619 1.228 1.597 0 3.193-.409 4.616-1.227 8.967-5.146 16.68-11.435 23.015-18.656 36.589 2.271 71.641 8.391 94.934 13.213.014.003.028.006.042.009 12.866 2.655 20.811 4.659 20.89 4.679.285.072.576.128.868.166 1.514.198 3.134 2.34 3.134 5.213 0 1.593-.506 3.101-1.386 4.133-.428.501-1.118 1.098-1.984 1.098h-48.357c-4.143 0-7.5 3.357-7.5 7.5s3.357 7.5 7.5 7.5h4.728v54.215l-26.277 12.014c-3.009-3.853-7.685-6.345-12.941-6.345h-122.565c-5.131 0-9.717 2.368-12.732 6.065l-26.486-13.514v-52.436h164.646c4.143 0 7.5-3.357 7.5-7.5s-3.357-7.5-7.5-7.5h-208.276c-1.591 0-3.37-2.237-3.37-5.24 0-2.871 1.617-5.014 3.128-5.215zm3.872 39.365c0-5.141.616-9.856 1.784-13.91h23.216v46.442c-2.169 1.027-4.423 1.558-6.74 1.558-11.43 0-18.26-17.333-18.26-34.09zm40.321 55.53 22.47 11.465v43.476c0 .297.018.591.022.887-12.923-15.773-20.866-35.255-22.492-55.828zm57.679 152.315v-14.511c0-.135.109-.244.244-.244h34.756v15h-34.756c-.135 0-.244-.11-.244-.245zm85-14.511v14.511c0 .135-.109.245-.244.245h-34.756v-15h34.756c.135 0 .244.109.244.244zm-65-15.244v-15h45v15zm47.59-30h-50.18c-20.743 0-37.619-16.876-37.619-37.619v-48.069c0-.787.64-1.427 1.427-1.427h122.564c.787 0 1.427.64 1.427 1.427v48.069c0 20.743-16.876 37.619-37.619 37.619zm52.597-36.732c.005-.296.022-.589.022-.887v-43.251l22.35-10.218c-1.881 20.029-9.757 38.959-22.372 54.356zm44.553-77.268c-2.317 0-4.572-.531-6.74-1.558v-46.442h23.216c1.168 4.054 1.784 8.769 1.784 13.91 0 16.757-6.83 34.09-18.26 34.09z"/><path d="m279.5 455.693c0-12.958-10.542-23.5-23.5-23.5s-23.5 10.542-23.5 23.5 10.542 23.5 23.5 23.5 23.5-10.542 23.5-23.5zm-32 0c0-4.687 3.813-8.5 8.5-8.5s8.5 3.813 8.5 8.5-3.813 8.5-8.5 8.5-8.5-3.813-8.5-8.5z"/></g></g></svg>